<svg id="Layer_1" enable-background="new 0 0 512.001 512.001" height="512" viewBox="0 0 512.001 512.001" width="512" xmlns="http://www.w3.org/2000/svg"><g><path d="m504.5 466c-.07-.01-.15-.02-.22-.03-248.43-29.21-496.78.03-496.78.03s154.43-196.77 248.5-420c91.75 217.72 240.91 410.27 248.22 419.64.19.24.28.36.28.36z" fill="#d792ff"/><path d="m504.28 465.97c-248.43-29.21-496.78.03-496.78.03l105.21-59.84 136.97-53.59 149.18 52.96 105.36 60.11z" fill="#9057ea"/><path d="m504.22 465.64-248.22-142.08v-277.56c91.03 216.02 238.58 407.26 248.02 419.39.07.09.14.17.2.25z" fill="#b078ff"/><path d="m504.02 465.39c-9.95-11.1-183.55-133.42-248.02-419.39 91.03 216.02 238.58 407.26 248.02 419.39z" fill="#9057ea"/><path d="m160.898 403.847c-17.174.674-33.29 1.467-48.187 2.316 7.988-11.736 16.471-24.425 25.317-37.965 33.723-51.619 77.462-123.107 117.972-203.167 40.51 80.06 84.249 151.548 117.972 203.166 8.687 13.298 17.022 25.772 24.885 37.331-91.278-5.224-175.928-4.116-237.959-1.681z" fill="#ebbbff"/></g><g><path d="m510.401 461.37c-.385-.49-39.063-49.928-88.693-125.909-45.755-70.049-110.446-177.635-158.796-292.374-1.171-2.78-3.895-4.587-6.911-4.587-3.017 0-5.74 1.808-6.911 4.587-12.454 29.554-26.703 60.325-42.351 91.46-1.86 3.701-.368 8.209 3.333 10.069 3.703 1.86 8.211.368 10.069-3.333 10.058-20.012 19.545-39.882 28.359-59.385v81.339c-24.267 47.841-52.079 97.325-82.683 147.109-2.169 3.529-1.067 8.148 2.461 10.317 3.531 2.17 8.148 1.067 10.317-2.461 28.375-46.158 54.375-92.075 77.404-136.691 27.195 52.694 58.354 106.89 92.748 161.307 1.427 2.258 3.859 3.494 6.347 3.494 1.37 0 2.757-.375 4-1.161 3.502-2.213 4.546-6.845 2.333-10.347-36.647-57.983-69.587-115.696-97.927-171.566v-81.347c46.689 103.234 104.031 198.068 145.746 261.922 27.228 41.677 51.199 75.444 67.441 97.625l-72.601-41.558c-7.997-11.776-16.011-23.807-23.835-35.784-2.267-3.468-6.914-4.443-10.381-2.177-3.468 2.265-4.442 6.913-2.178 10.38 5.435 8.319 10.96 16.664 16.508 24.932-88.853-4.448-170.008-2.982-223.596-.878-11.052.434-22.176.938-33.226 1.505 5.69-8.474 11.357-17.03 16.929-25.558 5.107-7.817 10.246-15.788 15.273-23.691 2.223-3.495 1.192-8.13-2.303-10.354-3.496-2.224-8.131-1.192-10.354 2.303-4.995 7.853-10.101 15.772-15.174 23.538-7.963 12.188-16.12 24.429-24.261 36.409l-72.362 41.155c34.637-47.343 104.909-148.075 168.116-267.611 1.936-3.662.537-8.2-3.125-10.136-3.663-1.935-8.2-.537-10.136 3.125-86.969 164.475-187.377 293.053-188.381 294.332-1.871 2.383-2.123 5.658-.641 8.3 1.337 2.384 3.85 3.831 6.539 3.831.292 0 .584-.017.878-.051.404-.048 41.089-4.792 104.771-8.495 4.135-.24 7.292-3.788 7.052-7.923-.241-4.135-3.773-7.297-7.923-7.052-28.558 1.661-52.544 3.532-70.405 5.101l73.02-41.529c15.307-.862 30.874-1.605 46.301-2.211 55.928-2.195 142.039-3.693 235.474 1.575l73.081 41.833c-120.479-11.578-237.611-10.238-317.658-6.785-4.138.179-7.348 3.678-7.17 7.816.179 4.138 3.679 7.33 7.816 7.17 87.378-3.77 219.181-5.008 350.888 10.499.294.035.588.051.879.051 2.688 0 5.201-1.447 6.539-3.83 1.483-2.642 1.23-5.917-.64-8.3z"/><path d="m246.641 267.179c-3.694-1.872-8.208-.393-10.079 3.302-.183.36-18.53 36.452-42.846 73.119-2.289 3.452-1.347 8.106 2.105 10.396 1.275.846 2.714 1.25 4.138 1.25 2.43 0 4.814-1.179 6.257-3.356 24.795-37.389 43.539-74.263 43.726-74.631 1.873-3.695.394-8.208-3.301-10.08z"/><path d="m236.013 350.832c1.274.846 2.714 1.25 4.138 1.25 2.43 0 4.813-1.179 6.258-3.356 11.045-16.656 19.148-32.594 19.488-33.265 1.872-3.695.394-8.207-3.301-10.079-3.691-1.872-8.207-.395-10.08 3.299-.079.157-8.066 15.856-18.609 31.754-2.289 3.454-1.346 8.108 2.106 10.397z"/></g></svg>