<svg id="Layer_1" enable-background="new 0 0 512 512" height="512" viewBox="0 0 512 512" width="512" xmlns="http://www.w3.org/2000/svg"><g><path d="m425.569 511.059c39.814 6.389 77.313-20.433 83.757-59.908 2.014-12.338-1.367-28.124-5.264-39.143l-267.589-70.67-151.658-31.656c-39.814-6.389-77.313 20.433-83.756 59.908-2.1 12.867 1.103 31.026 5.402 42.419l245.857 71.202 173.251 27.848c39.814 6.389 77.313-20.433 83.757-59.908" fill="#913f02"/><path d="m255.161 346.274v137.393l170.407 27.392c3.733.599 7.445.906 11.113.938s7.292-.211 10.849-.711c30.789-3.89 47.424-27.325 48.424-28.665 22.716-30.808 12.004-59.594 8.107-70.614z" fill="#693817"/><path d="m199.497 344.627-136.689 22.298c-39.814 6.389-66.865 43.569-60.422 83.044 6.444 39.475 43.943 66.297 83.756 59.908l364.089-58.426c39.814-6.389 66.865-43.569 60.422-83.044-6.444-39.475-43.943-66.297-83.756-59.908l-75.78 12.154z" fill="#f79855"/><ellipse cx="74.476" cy="438.4" fill="#ca6d36" rx="73.027" ry="72.406"/><ellipse cx="137.786" cy="17.072" fill="#ffd200" rx="16.208" ry="16.07"/><ellipse cx="423.629" cy="96.684" fill="#ff3543" rx="16.208" ry="16.07"/><ellipse cx="74.899" cy="178.899" fill="#ff9500" rx="16.208" ry="16.07"/><path d="m510.654 368.406c-6.444-39.475-43.943-66.297-83.756-59.908l-75.78 12.154-95.956 15.173v146.928l195.071-31.303c39.813-6.389 66.865-43.568 60.421-83.044z" fill="#ca6d36"/><path d="m510.599 368.073c-1.19-7.289-3.542-14.124-6.669-20.421l-119.972 19.252c-8.682 1.393-14.591 9.561-13.198 18.243 1.256 7.828 8.02 13.402 15.701 13.402.839 0 1.688-.066 2.542-.204l122.586-19.662c-.051-3.502-.409-7.048-.99-10.61z" fill="#913f02"/><path d="m133.732 220.376c.966-5.604 2.132-10.905 3.372-15.844 1.169-4.658 6.211-7.181 10.656-5.363l37.596 15.38c5.891 2.41 12.046-2.767 10.72-8.993-6.968-32.719-12.834-111.98 72.735-170.036 4.817-3.268 11.398-.334 12.23 5.427 3.21 22.219 13.155 69.889 41.995 104.998 38.395 46.742 54.71 69.881 57.769 112.275 2.814 45.359-17.308 102.834-75.215 122.683-115.066 39.441-189.06-60.749-171.858-160.527z" fill="#ff9500"/><path d="m323.035 145.945c-28.84-35.109-38.785-82.78-41.995-104.999-.832-5.761-7.413-8.695-12.23-5.427-4.842 3.285-9.377 6.641-13.65 10.05v344.125c15.695.083 32.565-2.669 50.427-8.792 57.907-19.849 78.029-77.324 75.215-122.683-3.057-42.392-19.372-65.532-57.767-112.274z" fill="#ff3543"/><path d="m194.569 282.267c-3.696-2.188-8.441-.065-9.391 4.123-.396 1.749-.76 3.48-1.01 4.929-9.994 57.974 32.998 116.187 99.854 93.271 33.646-11.533 51.421-50.383 51.635-76.788.233-28.709-7.264-63.159-38.054-113.736-3.279-5.386-11.572-3.203-11.783 3.1-.998 29.764-7.866 80.411-42.373 89.874-23.733 6.507-40.224.351-48.878-4.773z" fill="#fff69a"/><path d="m285.82 197.166c-.873 26.033-6.237 68.043-30.658 84.497v108.031c8.995-.004 18.648-1.603 28.861-5.104 33.646-11.533 51.42-50.383 51.635-76.788.233-28.709-7.264-63.159-38.054-113.736-3.28-5.387-11.573-3.203-11.784 3.1z" fill="#ffd200"/><ellipse cx="74.476" cy="438.4" fill="#913f02" rx="17.204" ry="17.057"/></g></svg>